<svg xmlns="http://www.w3.org/2000/svg" viewBox="128 128 768 768">
  <path fill="#fdc500" fill-rule="evenodd" d="M478 151a364 364 0 0 0-257 588 371 371 0 0 0 658-189 366 366 0 0 0-401-399m19 39a328 328 0 0 0-309 258c-9 41-9 86-1 103 7 14 27 6 42-18 8-12 12-20 28-60 28-72 55-100 94-100 40 0 61 26 75 93 15 69 54 86 86 36 7-10 10-16 24-42 38-74 65-95 105-85 38 10 53 39 58 110l4 42c18 145 146 103 136-45a326 326 0 0 0-342-292M342 427c-11 4-20 16-32 41-6 11-7 13-17 39-23 55-54 88-90 95-9 2-8 1-5 12 65 222 356 298 536 139 32-28 79-92 79-107l-8 3c-81 34-142-24-148-140-4-62-12-83-33-82-17 0-24 9-55 69-31 59-55 81-91 83-48 2-77-28-95-100-10-43-22-58-41-52"/>
</svg>
